<svg xmlns="http://www.w3.org/2000/svg" viewBox="0 0 1200 800"><defs><linearGradient id="g" x1="0" y1="0" x2="1" y2="1"><stop stop-color="#f5fcf9"/><stop offset="1" stop-color="#e3f6ef"/></linearGradient><linearGradient id="b" x1="0" y1="0" x2="1" y2="1"><stop stop-color="#60d5b7"/><stop offset="1" stop-color="#167b5f"/></linearGradient></defs><rect width="1200" height="800" rx="48" fill="url(#g)"/><circle cx="180" cy="160" r="105" fill="#60d5b71a"/><g transform="translate(230 165)"><rect x="0" y="65" width="260" height="430" rx="24" fill="#fff" stroke="#d4e9e1" stroke-width="8" transform="rotate(-8 130 280)"/><rect x="245" y="25" width="285" height="470" rx="24" fill="#eaf8f2" stroke="#cae5da" stroke-width="8" transform="rotate(3 390 260)"/><rect x="500" y="85" width="255" height="410" rx="24" fill="#fff" stroke="#d4e9e1" stroke-width="8" transform="rotate(9 630 290)"/></g><g transform="translate(490 205)"><rect width="250" height="360" rx="24" fill="url(#b)"/><text x="125" y="120" text-anchor="middle" font-family="Arial, sans-serif" font-size="32" font-weight="700" fill="#fff">DIGITAL</text><text x="125" y="165" text-anchor="middle" font-family="Arial, sans-serif" font-size="32" font-weight="700" fill="#fff">GROWTH</text><text x="125" y="210" text-anchor="middle" font-family="Arial, sans-serif" font-size="32" font-weight="700" fill="#fff">PLAYBOOK</text><path d="M70 275h110" stroke="#d9fff4" stroke-width="8" stroke-linecap="round"/><path d="M90 305h70" stroke="#d9fff4" stroke-width="8" stroke-linecap="round"/></g><g transform="translate(920 225)"><circle cx="0" cy="0" r="58" fill="#fff" stroke="#cfe8de" stroke-width="7"/><path d="M-15 2l12 12 25-30" fill="none" stroke="#178160" stroke-width="10" stroke-linecap="round"/></g><g transform="translate(925 410)"><rect x="-75" y="-55" width="150" height="110" rx="24" fill="#fff" stroke="#d2e8df" stroke-width="7"/><path d="M-38 -12h76M-38 12h58M-38 36h42" stroke="#60bda3" stroke-width="9" stroke-linecap="round"/></g></svg>