<svg width="70" height="22" viewBox="0 0 70 22" fill="none" xmlns="http://www.w3.org/2000/svg">
<path d="M69.9996 8.43506L60.9268 20.4909H56.3633L61.2308 14.3441L56.7276 8.43506H61.1702L63.4853 11.4808L65.6731 8.43506H69.9996Z" fill="white"/>
<path d="M54.6173 2.50953C56.7999 4.86983 52.5009 7.71106 50.8322 5.14069C49.2741 2.74721 52.8325 0.574848 54.6173 2.50953Z" fill="white"/>
<path d="M66.3967 16.6218L63.5625 20.6736H68.8111L66.3967 16.6218Z" fill="#14FCBE"/>
<path d="M0 20.4914H12.1722V16.8376H4.25999V12.6974H11.686V9.04362H4.25999V5.88181H12.1722V2.22805L0 2.10645V20.4914Z" fill="white"/>
<path d="M34.7591 17.0806C33.7369 16.76 32.6318 16.6107 31.5931 16.3509C30.9577 16.7711 30.7588 17.3404 29.9465 17.6278C27.9685 18.3243 25.8855 17.5338 25.8081 15.2565H34.9359V13.0012C34.9359 12.7967 34.6099 11.8625 34.5049 11.6027C32.549 6.65546 23.6146 7.0479 21.9957 12.2384C20.0673 18.4293 25.8578 22.2047 31.4328 20.3364C32.5047 19.9771 34.7369 18.4183 34.9359 17.263C34.9801 16.9977 34.8806 17.1137 34.7536 17.0751L34.7591 17.0806ZM30.6759 13.062H25.9297C26.0789 10.1489 30.5433 10.0771 30.6759 13.062Z" fill="white"/>
<path d="M19.3548 0.0332031H15.3379V20.491H19.3548V0.0332031Z" fill="white"/>
<path d="M54.7838 8.43506H50.8887V20.4909H54.7838V8.43506Z" fill="white"/>
<path d="M41.7149 15.5881L37.2394 8.43526H33.543L41.6651 21.967L41.7149 21.862L41.7646 21.967L45.7097 15.4057L43.8754 12.2273H47.6158L49.8921 8.43526L46.1849 8.4187L41.7149 15.5881Z" fill="white"/>
</svg>
